<svg width="160" height="24" viewBox="0 0 160 24" fill="none" xmlns="http://www.w3.org/2000/svg">
<path fill-rule="evenodd" clip-rule="evenodd" d="M12 3.75C7.44365 3.75 3.75 7.44365 3.75 12C3.75 16.5563 7.44365 20.25 12 20.25C16.5563 20.25 20.25 16.5563 20.25 12C20.25 7.44365 16.5563 3.75 12 3.75ZM2.25 12C2.25 6.61522 6.61522 2.25 12 2.25C17.3848 2.25 21.75 6.61522 21.75 12C21.75 17.3848 17.3848 21.75 12 21.75C6.61522 21.75 2.25 17.3848 2.25 12Z" fill="#858584"/>
<path fill-rule="evenodd" clip-rule="evenodd" d="M2.76562 9C2.76562 8.58579 3.10141 8.25 3.51562 8.25H20.4844C20.8986 8.25 21.2344 8.58579 21.2344 9C21.2344 9.41421 20.8986 9.75 20.4844 9.75H3.51562C3.10141 9.75 2.76562 9.41421 2.76562 9Z" fill="#858584"/>
<path fill-rule="evenodd" clip-rule="evenodd" d="M2.76562 15C2.76562 14.5858 3.10141 14.25 3.51562 14.25H20.4844C20.8986 14.25 21.2344 14.5858 21.2344 15C21.2344 15.4142 20.8986 15.75 20.4844 15.75H3.51562C3.10141 15.75 2.76562 15.4142 2.76562 15Z" fill="#858584"/>
<path fill-rule="evenodd" clip-rule="evenodd" d="M10.0378 6.10405C9.4079 7.57484 9 9.659 9 12.0004C9 14.3418 9.4079 16.4259 10.0378 17.8967C10.3533 18.6335 10.7097 19.1817 11.0673 19.5349C11.4217 19.8849 11.736 20.0066 12 20.0066C12.264 20.0066 12.5783 19.8849 12.9327 19.5349C13.2903 19.1817 13.6467 18.6335 13.9622 17.8967C14.5921 16.4259 15 14.3418 15 12.0004C15 9.659 14.5921 7.57484 13.9622 6.10405C13.6467 5.36731 13.2903 4.81904 12.9327 4.46587C12.5783 4.11587 12.264 3.99414 12 3.99414C11.736 3.99414 11.4217 4.11587 11.0673 4.46587C10.7097 4.81904 10.3533 5.36731 10.0378 6.10405ZM10.0133 3.39863C10.5562 2.86245 11.2284 2.49414 12 2.49414C12.7716 2.49414 13.4438 2.86245 13.9867 3.39863C14.5264 3.93164 14.978 4.66569 15.3411 5.51353C16.0684 7.21187 16.5 9.50584 16.5 12.0004C16.5 14.4949 16.0684 16.7889 15.3411 18.4873C14.978 19.3351 14.5264 20.0691 13.9867 20.6022C13.4438 21.1383 12.7716 21.5066 12 21.5066C11.2284 21.5066 10.5562 21.1383 10.0133 20.6022C9.47362 20.0691 9.02201 19.3351 8.65891 18.4873C7.93157 16.7889 7.5 14.4949 7.5 12.0004C7.5 9.50584 7.93157 7.21187 8.65891 5.51353C9.02201 4.66569 9.47362 3.93164 10.0133 3.39863Z" fill="#858584"/>
<path d="M43 14.625C43.6213 14.625 44.125 14.1213 44.125 13.5C44.125 12.8787 43.6213 12.375 43 12.375C42.3787 12.375 41.875 12.8787 41.875 13.5C41.875 14.1213 42.3787 14.625 43 14.625Z" fill="#858584"/>
<path d="M49 14.625C49.6213 14.625 50.125 14.1213 50.125 13.5C50.125 12.8787 49.6213 12.375 49 12.375C48.3787 12.375 47.875 12.8787 47.875 13.5C47.875 14.1213 48.3787 14.625 49 14.625Z" fill="#858584"/>
<path fill-rule="evenodd" clip-rule="evenodd" d="M45.9943 7.49945C44.3684 7.48743 42.7506 7.72889 41.1991 8.21515C40.8039 8.33902 40.383 8.11903 40.2591 7.72377C40.1353 7.32852 40.3553 6.90767 40.7505 6.7838C42.449 6.25148 44.22 5.98687 45.9998 5.99945C47.7797 5.98687 49.5506 6.25148 51.2491 6.7838C51.6444 6.90767 51.8644 7.32852 51.7405 7.72377C51.6166 8.11903 51.1958 8.33902 50.8005 8.21515C49.249 7.72889 47.6312 7.48743 46.0054 7.49945H45.9943Z" fill="#858584"/>
<path fill-rule="evenodd" clip-rule="evenodd" d="M40.2591 16.2759C40.383 15.8806 40.8039 15.6606 41.1991 15.7845C42.7506 16.2708 44.3684 16.5122 45.9943 16.5002H46.0054C47.6312 16.5122 49.249 16.2708 50.8005 15.7845C51.1958 15.6606 51.6166 15.8806 51.7405 16.2759C51.8644 16.6712 51.6444 17.092 51.2491 17.2159C49.5506 17.7482 47.7797 18.0128 45.9998 18.0002C44.22 18.0128 42.449 17.7482 40.7505 17.2159C40.3553 17.092 40.1353 16.6712 40.2591 16.2759Z" fill="#858584"/>
<path fill-rule="evenodd" clip-rule="evenodd" d="M49.1656 3.60865C49.4884 3.42663 49.8669 3.36975 50.229 3.44883C51.2171 3.66299 52.1846 3.96342 53.1202 4.34667C53.3308 4.42788 53.52 4.55646 53.6731 4.72253C53.8277 4.89038 53.9412 5.09189 54.0046 5.31111L57.1815 15.9194C57.2644 16.1958 57.2663 16.4901 57.187 16.7675C57.1077 17.0449 56.9506 17.2938 56.7343 17.4847L56.7304 17.4881C55.1798 18.8373 53.0788 19.8585 50.6923 20.4435C50.3608 20.528 50.0103 20.4951 49.7002 20.3504C49.3913 20.2063 49.1417 19.9601 48.9933 19.6536L47.8621 17.4099C47.6757 17.04 47.8243 16.589 48.1942 16.4026C48.5641 16.2161 49.0151 16.3648 49.2015 16.7346L50.3359 18.9846L50.3367 18.9863C52.5402 18.4459 54.4108 17.5181 55.7458 16.3565L56.2381 16.9223L55.7419 16.3599C55.7433 16.3587 55.7442 16.3571 55.7447 16.3554C55.7452 16.3537 55.7452 16.3519 55.7447 16.3501L52.5676 5.74123C52.565 5.74018 52.5623 5.73911 52.5597 5.73802C51.7025 5.38636 50.816 5.11083 49.9105 4.91464L49.9089 4.91428C49.9066 4.91379 49.9043 4.91414 49.9023 4.91527C49.9005 4.91629 49.8991 4.91788 49.8983 4.91977L49.1596 7.15453C49.0296 7.54781 48.6054 7.76125 48.2121 7.63125C47.8188 7.50126 47.6054 7.07705 47.7354 6.68376L48.4781 4.43662C48.5978 4.08555 48.8425 3.79082 49.1656 3.60865Z" fill="#858584"/>
<path fill-rule="evenodd" clip-rule="evenodd" d="M42.0987 4.91527C42.0966 4.91414 42.0943 4.91379 42.092 4.91428L42.0904 4.91464C41.1849 5.11083 40.2984 5.38636 39.4413 5.73802C39.4386 5.73911 39.436 5.74018 39.4333 5.74123L36.2563 16.3499C36.2558 16.3517 36.2557 16.3537 36.2562 16.3554C36.2567 16.357 36.2575 16.3584 36.2586 16.3595C37.5934 17.5197 39.4627 18.4464 41.6642 18.9863L41.665 18.9846L42.7994 16.7346C42.9859 16.3648 43.4369 16.2161 43.8067 16.4026C44.1766 16.589 44.3253 17.04 44.1388 17.4099L43.0076 19.6536C42.8592 19.9602 42.6096 20.2063 42.3008 20.3504C41.9907 20.4951 41.6401 20.528 41.3086 20.4435C38.9222 19.8585 36.8211 18.8373 35.2705 17.4881L35.2666 17.4847C35.0503 17.2938 34.8932 17.0449 34.8139 16.7675C34.7347 16.4902 34.7366 16.1959 34.8194 15.9196C34.8193 15.9197 34.8194 15.9195 34.8194 15.9196L37.9963 5.31112C38.0597 5.0919 38.1732 4.89038 38.3279 4.72253C38.4809 4.55646 38.6701 4.42788 38.8807 4.34667C39.8166 3.96331 40.7843 3.66282 41.7728 3.44865C42.1346 3.36983 42.5128 3.42677 42.8354 3.60865C43.1584 3.79081 43.4031 4.08555 43.5228 4.43663L43.525 4.44313L44.2656 6.68376C44.3956 7.07705 44.1821 7.50125 43.7889 7.63125C43.3956 7.76125 42.9714 7.54781 42.8414 7.15453L42.1027 4.91977C42.1019 4.91787 42.1005 4.91629 42.0987 4.91527Z" fill="#858584"/>
<path d="M43 14.625C43.6213 14.625 44.125 14.1213 44.125 13.5C44.125 12.8787 43.6213 12.375 43 12.375C42.3787 12.375 41.875 12.8787 41.875 13.5C41.875 14.1213 42.3787 14.625 43 14.625Z" fill="#858584"/>
<path d="M49 14.625C49.6213 14.625 50.125 14.1213 50.125 13.5C50.125 12.8787 49.6213 12.375 49 12.375C48.3787 12.375 47.875 12.8787 47.875 13.5C47.875 14.1213 48.3787 14.625 49 14.625Z" fill="#858584"/>
<path fill-rule="evenodd" clip-rule="evenodd" d="M45.9943 7.49945C44.3684 7.48743 42.7506 7.72889 41.1991 8.21515C40.8039 8.33902 40.383 8.11903 40.2591 7.72377C40.1353 7.32852 40.3553 6.90767 40.7505 6.7838C42.449 6.25148 44.22 5.98687 45.9998 5.99945C47.7797 5.98687 49.5506 6.25148 51.2491 6.7838C51.6444 6.90767 51.8644 7.32852 51.7405 7.72377C51.6166 8.11903 51.1958 8.33902 50.8005 8.21515C49.249 7.72889 47.6312 7.48743 46.0054 7.49945H45.9943Z" fill="#858584"/>
<path fill-rule="evenodd" clip-rule="evenodd" d="M40.2591 16.2759C40.383 15.8806 40.8039 15.6606 41.1991 15.7845C42.7506 16.2708 44.3684 16.5122 45.9943 16.5002H46.0054C47.6312 16.5122 49.249 16.2708 50.8005 15.7845C51.1958 15.6606 51.6166 15.8806 51.7405 16.2759C51.8644 16.6712 51.6444 17.092 51.2491 17.2159C49.5506 17.7482 47.7797 18.0128 45.9998 18.0002C44.22 18.0128 42.449 17.7482 40.7505 17.2159C40.3553 17.092 40.1353 16.6712 40.2591 16.2759Z" fill="#858584"/>
<path fill-rule="evenodd" clip-rule="evenodd" d="M49.1656 3.60865C49.4884 3.42663 49.8669 3.36975 50.229 3.44883C51.2171 3.66299 52.1846 3.96342 53.1202 4.34667C53.3308 4.42788 53.52 4.55646 53.6731 4.72253C53.8277 4.89038 53.9412 5.09189 54.0046 5.31111L57.1815 15.9194C57.2644 16.1958 57.2663 16.4901 57.187 16.7675C57.1077 17.0449 56.9506 17.2938 56.7343 17.4847L56.7304 17.4881C55.1798 18.8373 53.0788 19.8585 50.6923 20.4435C50.3608 20.528 50.0103 20.4951 49.7002 20.3504C49.3913 20.2063 49.1417 19.9601 48.9933 19.6536L47.8621 17.4099C47.6757 17.04 47.8243 16.589 48.1942 16.4026C48.5641 16.2161 49.0151 16.3648 49.2015 16.7346L50.3359 18.9846L50.3367 18.9863C52.5402 18.4459 54.4108 17.5181 55.7458 16.3565L56.2381 16.9223L55.7419 16.3599C55.7433 16.3587 55.7442 16.3571 55.7447 16.3554C55.7452 16.3537 55.7452 16.3519 55.7447 16.3501L52.5676 5.74123C52.565 5.74018 52.5623 5.73911 52.5597 5.73802C51.7025 5.38636 50.816 5.11083 49.9105 4.91464L49.9089 4.91428C49.9066 4.91379 49.9043 4.91414 49.9023 4.91527C49.9005 4.91629 49.8991 4.91788 49.8983 4.91977L49.1596 7.15453C49.0296 7.54781 48.6054 7.76125 48.2121 7.63125C47.8188 7.50126 47.6054 7.07705 47.7354 6.68376L48.4781 4.43662C48.5978 4.08555 48.8425 3.79082 49.1656 3.60865Z" fill="#858584"/>
<path fill-rule="evenodd" clip-rule="evenodd" d="M42.0987 4.91527C42.0966 4.91414 42.0943 4.91379 42.092 4.91428L42.0904 4.91464C41.1849 5.11083 40.2984 5.38636 39.4413 5.73802C39.4386 5.73911 39.436 5.74018 39.4333 5.74123L36.2563 16.3499C36.2558 16.3517 36.2557 16.3537 36.2562 16.3554C36.2567 16.357 36.2575 16.3584 36.2586 16.3595C37.5934 17.5197 39.4627 18.4464 41.6642 18.9863L41.665 18.9846L42.7994 16.7346C42.9859 16.3648 43.4369 16.2161 43.8067 16.4026C44.1766 16.589 44.3253 17.04 44.1388 17.4099L43.0076 19.6536C42.8592 19.9602 42.6096 20.2063 42.3008 20.3504C41.9907 20.4951 41.6401 20.528 41.3086 20.4435C38.9222 19.8585 36.8211 18.8373 35.2705 17.4881L35.2666 17.4847C35.0503 17.2938 34.8932 17.0449 34.8139 16.7675C34.7347 16.4902 34.7366 16.1959 34.8194 15.9196C34.8193 15.9197 34.8194 15.9195 34.8194 15.9196L37.9963 5.31112C38.0597 5.0919 38.1732 4.89038 38.3279 4.72253C38.4809 4.55646 38.6701 4.42788 38.8807 4.34667C39.8166 3.96331 40.7843 3.66282 41.7728 3.44865C42.1346 3.36983 42.5128 3.42677 42.8354 3.60865C43.1584 3.79081 43.4031 4.08555 43.5228 4.43663L43.525 4.44313L44.2656 6.68376C44.3956 7.07705 44.1821 7.50125 43.7889 7.63125C43.3956 7.76125 42.9714 7.54781 42.8414 7.15453L42.1027 4.91977C42.1019 4.91787 42.1005 4.91629 42.0987 4.91527Z" fill="#858584"/>
<path fill-rule="evenodd" clip-rule="evenodd" d="M78.1461 8.33875C78.39 8.20823 78.6859 8.22254 78.916 8.37596L83.416 11.376C83.6247 11.5151 83.75 11.7492 83.75 12C83.75 12.2508 83.6247 12.4849 83.416 12.624L78.916 15.624C78.6859 15.7775 78.39 15.7918 78.1461 15.6613C77.9022 15.5307 77.75 15.2766 77.75 15V9C77.75 8.7234 77.9022 8.46926 78.1461 8.33875ZM79.25 10.4014V13.5986L81.6479 12L79.25 10.4014Z" fill="#858584"/>
<path fill-rule="evenodd" clip-rule="evenodd" d="M79.9989 3.78714L79.9862 3.78711L79.9391 3.78713C79.8983 3.78722 79.8387 3.78752 79.7623 3.78833C79.6096 3.78995 79.3892 3.79363 79.1154 3.80185C78.5684 3.81826 77.8059 3.85287 76.9428 3.92575C75.2355 4.06989 73.062 4.36904 71.3886 5.00843L71.3775 5.01274C71.0488 5.14431 70.7556 5.3513 70.5216 5.617C70.2876 5.8827 70.1193 6.19968 70.0303 6.54238L70.0296 6.5452C69.796 7.45912 69.5 9.15388 69.5 11.9997C69.5 14.8454 69.796 16.5402 70.0296 17.4541L70.0303 17.4569C70.1193 17.7996 70.2876 18.1166 70.5216 18.3823C70.7556 18.648 71.0488 18.855 71.3775 18.9866L71.3886 18.9909C73.062 19.6303 75.2355 19.9294 76.9428 20.0736C77.8059 20.1464 78.5684 20.181 79.1154 20.1975C79.3892 20.2057 79.6096 20.2094 79.7623 20.211C79.8387 20.2118 79.8983 20.2121 79.9391 20.2122L79.9862 20.2122L79.9989 20.2122H80.0011L80.0138 20.2122L80.0609 20.2122C80.1017 20.2121 80.1613 20.2118 80.2377 20.211C80.3904 20.2094 80.6108 20.2057 80.8846 20.1975C81.4316 20.181 82.1941 20.1464 83.0572 20.0736C84.7645 19.9294 86.938 19.6303 88.6114 18.9909L88.6225 18.9866C88.9512 18.855 89.2444 18.648 89.4784 18.3823C89.7124 18.1166 89.8807 17.7996 89.9697 17.4569L89.9704 17.4541C90.204 16.5402 90.5 14.8454 90.5 11.9997C90.5 9.15388 90.204 7.45912 89.9704 6.5452L89.9697 6.54238C89.8807 6.19968 89.7124 5.8827 89.4784 5.617C89.2444 5.3513 88.9512 5.14431 88.6225 5.01274L88.6114 5.00843C86.938 4.36904 84.7645 4.06989 83.0572 3.92575C82.1941 3.85287 81.4316 3.81826 80.8846 3.80185C80.6108 3.79363 80.3904 3.78995 80.2377 3.78833C80.1613 3.78752 80.1017 3.78722 80.0609 3.78713L80.0138 3.78711L80.0011 3.78714H79.9989ZM79.9961 18.7122L80.0041 18.7121L80.0065 18.7122L80.0163 18.7122L80.0575 18.7122C80.0944 18.7121 80.1497 18.7118 80.2217 18.7111C80.3658 18.7095 80.5764 18.706 80.8396 18.6981C81.3662 18.6823 82.1008 18.649 82.931 18.5789C84.6081 18.4373 86.6031 18.1511 88.0697 17.5921C88.1783 17.5478 88.2752 17.4789 88.3527 17.3909C88.4311 17.3019 88.4875 17.1958 88.5175 17.0811C88.7152 16.3069 89 14.7394 89 11.9997C89 9.25985 88.7152 7.69239 88.5175 6.91824C88.4875 6.80351 88.4311 6.6974 88.3527 6.60841C88.2752 6.52037 88.1783 6.45151 88.0697 6.4072C86.6031 5.84819 84.6081 5.56202 82.931 5.42043C82.1008 5.35034 81.3662 5.31698 80.8396 5.30117C80.5764 5.29327 80.3658 5.28977 80.2217 5.28825C80.1497 5.28748 80.0944 5.28721 80.0575 5.28713L80.0163 5.28711L80.0065 5.28713L80.0043 5.28714L79.9959 5.28719L79.9935 5.28713L79.9837 5.28711L79.9425 5.28713C79.9056 5.28721 79.8503 5.28748 79.7783 5.28825C79.6342 5.28977 79.4236 5.29327 79.1604 5.30117C78.6338 5.31698 77.8992 5.35034 77.069 5.42043C75.3919 5.56202 73.3969 5.84819 71.9303 6.40721C71.8217 6.45151 71.7248 6.52037 71.6473 6.60841C71.5689 6.6974 71.5125 6.80351 71.4825 6.91824C71.2848 7.69239 71 9.25985 71 11.9997C71 14.7394 71.2848 16.3069 71.4825 17.0811C71.5125 17.1958 71.5689 17.3019 71.6473 17.3909C71.7248 17.4789 71.8217 17.5478 71.9303 17.5921C73.3969 18.1511 75.3919 18.4373 77.069 18.5789C77.8992 18.649 78.6338 18.6823 79.1604 18.6981C79.4236 18.706 79.6342 18.7095 79.7783 18.7111C79.8503 18.7118 79.9056 18.7121 79.9425 18.7122L79.9837 18.7122L79.9935 18.7122L79.9961 18.7122Z" fill="#858584"/>
<path d="M114.001 8.25034C114.001 6.18784 115.735 4.47222 117.797 4.50034C118.52 4.50868 119.224 4.72545 119.826 5.1246C120.428 5.52375 120.902 6.08828 121.191 6.75034H124.501L121.472 9.77847C121.277 12.8203 119.93 15.6734 117.707 17.758C115.483 19.8425 112.549 21.0018 109.501 21.0003C106.501 21.0003 105.751 19.8753 105.751 19.8753C105.751 19.8753 108.751 18.7503 110.251 16.5003C110.251 16.5003 104.251 13.5003 105.751 5.25034C105.751 5.25034 109.501 9.00034 114.001 9.75034V8.25034Z" stroke="#858584" stroke-width="2" stroke-linecap="round" stroke-linejoin="round"/>
<path fill-rule="evenodd" clip-rule="evenodd" d="M148 9C146.343 9 145 10.3431 145 12C145 13.6569 146.343 15 148 15C149.657 15 151 13.6569 151 12C151 10.3431 149.657 9 148 9ZM143.5 12C143.5 9.51472 145.515 7.5 148 7.5C150.485 7.5 152.5 9.51472 152.5 12C152.5 14.4853 150.485 16.5 148 16.5C145.515 16.5 143.5 14.4853 143.5 12Z" fill="#858584"/>
<path fill-rule="evenodd" clip-rule="evenodd" d="M143.875 4.125C141.804 4.125 140.125 5.80393 140.125 7.875V16.125C140.125 18.1961 141.804 19.875 143.875 19.875H152.125C154.196 19.875 155.875 18.1961 155.875 16.125V7.875C155.875 5.80393 154.196 4.125 152.125 4.125H143.875ZM138.625 7.875C138.625 4.97551 140.976 2.625 143.875 2.625H152.125C155.024 2.625 157.375 4.97551 157.375 7.875V16.125C157.375 19.0245 155.024 21.375 152.125 21.375H143.875C140.976 21.375 138.625 19.0245 138.625 16.125V7.875Z" fill="#858584"/>
<path d="M152.875 8.25C153.496 8.25 154 7.74632 154 7.125C154 6.50368 153.496 6 152.875 6C152.254 6 151.75 6.50368 151.75 7.125C151.75 7.74632 152.254 8.25 152.875 8.25Z" fill="#858584"/>
</svg>
