<svg width="158" height="32" viewBox="0 0 158 32" fill="none" xmlns="http://www.w3.org/2000/svg">
<path d="M12 19.5C12.8284 19.5 13.5 18.8284 13.5 18C13.5 17.1716 12.8284 16.5 12 16.5C11.1716 16.5 10.5 17.1716 10.5 18C10.5 18.8284 11.1716 19.5 12 19.5Z" fill="#858584"/>
<path d="M20 19.5C20.8284 19.5 21.5 18.8284 21.5 18C21.5 17.1716 20.8284 16.5 20 16.5C19.1716 16.5 18.5 17.1716 18.5 18C18.5 18.8284 19.1716 19.5 20 19.5Z" fill="#858584"/>
<path fill-rule="evenodd" clip-rule="evenodd" d="M15.9917 10.0006C13.8239 9.98454 11.6668 10.3065 9.59816 10.9548C9.07115 11.12 8.51003 10.8267 8.34486 10.2997C8.17969 9.77266 8.47302 9.21154 9.00003 9.04637C11.2646 8.33661 13.6259 7.98379 15.9991 8.00057C18.3722 7.98379 20.7335 8.33661 22.9982 9.04637C23.5252 9.21154 23.8185 9.77266 23.6533 10.2997C23.4882 10.8267 22.927 11.12 22.4 10.9548C20.3314 10.3065 18.1743 9.98454 16.0065 10.0006H15.9917Z" fill="#858584"/>
<path fill-rule="evenodd" clip-rule="evenodd" d="M8.34486 21.7012C8.51003 21.1742 9.07115 20.8809 9.59816 21.046C11.6668 21.6944 13.8239 22.0163 15.9917 22.0003H16.0065C18.1743 22.0163 20.3314 21.6944 22.4 21.046C22.927 20.8809 23.4882 21.1742 23.6533 21.7012C23.8185 22.2282 23.5252 22.7893 22.9982 22.9545C20.7335 23.6643 18.3722 24.0171 15.9991 24.0003C13.6259 24.0171 11.2646 23.6643 9.00003 22.9545C8.47302 22.7893 8.17969 22.2282 8.34486 21.7012Z" fill="#858584"/>
<path fill-rule="evenodd" clip-rule="evenodd" d="M20.2195 4.81024C20.6499 4.56754 21.1546 4.4917 21.6373 4.59714C22.9549 4.88268 24.2448 5.28326 25.4924 5.79426C25.7732 5.90254 26.0254 6.07398 26.2294 6.29541C26.4357 6.5192 26.587 6.78788 26.6715 7.08017L30.9074 21.2246C31.0178 21.593 31.0204 21.9855 30.9147 22.3554C30.809 22.7253 30.5995 23.0571 30.3111 23.3116L30.3059 23.3161C28.2385 25.1151 25.4371 26.4767 22.2551 27.2567C21.8132 27.3694 21.3457 27.3256 20.9322 27.1326C20.5205 26.9404 20.1877 26.6122 19.9898 26.2035L18.4816 23.2119C18.2329 22.7188 18.4311 22.1174 18.9243 21.8688C19.4175 21.6202 20.0188 21.8184 20.2674 22.3115L21.7799 25.3115L21.781 25.3137C24.7189 24.5933 27.2131 23.3562 28.9931 21.8073L29.6495 22.5617L28.9879 21.8119C28.9897 21.8103 28.991 21.8082 28.9917 21.8059C28.9923 21.8036 28.9923 21.8012 28.9916 21.7989L24.7555 7.65368C24.752 7.65227 24.7485 7.65084 24.7449 7.64939C23.602 7.18051 22.4201 6.81314 21.2127 6.55155L21.2106 6.55107C21.2076 6.55042 21.2044 6.55089 21.2017 6.5524C21.1993 6.55375 21.1975 6.55587 21.1964 6.5584L20.2115 9.53807C20.0381 10.0625 19.4725 10.347 18.9481 10.1737C18.4238 10.0004 18.1392 9.43476 18.3125 8.91038L19.3029 5.91419C19.4624 5.44609 19.7887 5.05312 20.2195 4.81024Z" fill="#858584"/>
<path fill-rule="evenodd" clip-rule="evenodd" d="M10.7982 6.5524C10.7955 6.55089 10.7924 6.55042 10.7894 6.55107L10.7872 6.55155C9.57988 6.81314 8.39792 7.18051 7.25502 7.64939C7.25149 7.65084 7.24795 7.65227 7.24441 7.65368L3.00842 21.7986C3.00774 21.8009 3.00764 21.8036 3.00829 21.8059C3.00888 21.808 3.01 21.8099 3.01152 21.8114C4.79121 23.3583 7.2836 24.5939 10.2189 25.3137L10.22 25.3115L11.7325 22.3115C11.9812 21.8184 12.5825 21.6202 13.0756 21.8688C13.5688 22.1174 13.767 22.7188 13.5184 23.2119L12.0101 26.2035C11.8123 26.6122 11.4795 26.9404 11.0677 27.1326C10.6542 27.3256 10.1868 27.3694 9.74481 27.2567C6.56287 26.4767 3.76151 25.1151 1.69404 23.3161L1.68886 23.3116C1.40039 23.0571 1.19093 22.7252 1.08525 22.3554C0.979591 21.9856 0.982107 21.5932 1.09249 21.2248C1.09246 21.2249 1.09252 21.2248 1.09249 21.2248L5.32839 7.08019C5.41291 6.78789 5.56426 6.51921 5.77051 6.29541C5.97457 6.07398 6.22679 5.90254 6.5076 5.79426C7.75546 5.28312 9.04577 4.88246 10.3637 4.5969C10.8461 4.49181 11.3504 4.56772 11.7805 4.81024C12.2113 5.05312 12.5375 5.4461 12.697 5.9142L12.7 5.92287L13.6874 8.91038C13.8608 9.43476 13.5762 10.0004 13.0518 10.1737C12.5274 10.347 11.9618 10.0624 11.7885 9.53807L10.8036 6.55839C10.8025 6.55586 10.8006 6.55375 10.7982 6.5524Z" fill="#858584"/>
<path d="M12 19.5C12.8284 19.5 13.5 18.8284 13.5 18C13.5 17.1716 12.8284 16.5 12 16.5C11.1716 16.5 10.5 17.1716 10.5 18C10.5 18.8284 11.1716 19.5 12 19.5Z" fill="#858584"/>
<path d="M20 19.5C20.8284 19.5 21.5 18.8284 21.5 18C21.5 17.1716 20.8284 16.5 20 16.5C19.1716 16.5 18.5 17.1716 18.5 18C18.5 18.8284 19.1716 19.5 20 19.5Z" fill="#858584"/>
<path fill-rule="evenodd" clip-rule="evenodd" d="M15.9917 10.0006C13.8239 9.98454 11.6668 10.3065 9.59816 10.9548C9.07115 11.12 8.51003 10.8267 8.34486 10.2997C8.17969 9.77266 8.47302 9.21154 9.00003 9.04637C11.2646 8.33661 13.6259 7.98379 15.9991 8.00057C18.3722 7.98379 20.7335 8.33661 22.9982 9.04637C23.5252 9.21154 23.8185 9.77266 23.6533 10.2997C23.4882 10.8267 22.927 11.12 22.4 10.9548C20.3314 10.3065 18.1743 9.98454 16.0065 10.0006H15.9917Z" fill="#858584"/>
<path fill-rule="evenodd" clip-rule="evenodd" d="M8.34486 21.7012C8.51003 21.1742 9.07115 20.8809 9.59816 21.046C11.6668 21.6944 13.8239 22.0163 15.9917 22.0003H16.0065C18.1743 22.0163 20.3314 21.6944 22.4 21.046C22.927 20.8809 23.4882 21.1742 23.6533 21.7012C23.8185 22.2282 23.5252 22.7893 22.9982 22.9545C20.7335 23.6643 18.3722 24.0171 15.9991 24.0003C13.6259 24.0171 11.2646 23.6643 9.00003 22.9545C8.47302 22.7893 8.17969 22.2282 8.34486 21.7012Z" fill="#858584"/>
<path fill-rule="evenodd" clip-rule="evenodd" d="M20.2195 4.81024C20.6499 4.56754 21.1546 4.4917 21.6373 4.59714C22.9549 4.88268 24.2448 5.28326 25.4924 5.79426C25.7732 5.90254 26.0254 6.07398 26.2294 6.29541C26.4357 6.5192 26.587 6.78788 26.6715 7.08017L30.9074 21.2246C31.0178 21.593 31.0204 21.9855 30.9147 22.3554C30.809 22.7253 30.5995 23.0571 30.3111 23.3116L30.3059 23.3161C28.2385 25.1151 25.4371 26.4767 22.2551 27.2567C21.8132 27.3694 21.3457 27.3256 20.9322 27.1326C20.5205 26.9404 20.1877 26.6122 19.9898 26.2035L18.4816 23.2119C18.2329 22.7188 18.4311 22.1174 18.9243 21.8688C19.4175 21.6202 20.0188 21.8184 20.2674 22.3115L21.7799 25.3115L21.781 25.3137C24.7189 24.5933 27.2131 23.3562 28.9931 21.8073L29.6495 22.5617L28.9879 21.8119C28.9897 21.8103 28.991 21.8082 28.9917 21.8059C28.9923 21.8036 28.9923 21.8012 28.9916 21.7989L24.7555 7.65368C24.752 7.65227 24.7485 7.65084 24.7449 7.64939C23.602 7.18051 22.4201 6.81314 21.2127 6.55155L21.2106 6.55107C21.2076 6.55042 21.2044 6.55089 21.2017 6.5524C21.1993 6.55375 21.1975 6.55587 21.1964 6.5584L20.2115 9.53807C20.0381 10.0625 19.4725 10.347 18.9481 10.1737C18.4238 10.0004 18.1392 9.43476 18.3125 8.91038L19.3029 5.91419C19.4624 5.44609 19.7887 5.05312 20.2195 4.81024Z" fill="#858584"/>
<path fill-rule="evenodd" clip-rule="evenodd" d="M10.7982 6.5524C10.7955 6.55089 10.7924 6.55042 10.7894 6.55107L10.7872 6.55155C9.57988 6.81314 8.39792 7.18051 7.25502 7.64939C7.25149 7.65084 7.24795 7.65227 7.24441 7.65368L3.00842 21.7986C3.00774 21.8009 3.00764 21.8036 3.00829 21.8059C3.00888 21.808 3.01 21.8099 3.01152 21.8114C4.79121 23.3583 7.2836 24.5939 10.2189 25.3137L10.22 25.3115L11.7325 22.3115C11.9812 21.8184 12.5825 21.6202 13.0756 21.8688C13.5688 22.1174 13.767 22.7188 13.5184 23.2119L12.0101 26.2035C11.8123 26.6122 11.4795 26.9404 11.0677 27.1326C10.6542 27.3256 10.1868 27.3694 9.74481 27.2567C6.56287 26.4767 3.76151 25.1151 1.69404 23.3161L1.68886 23.3116C1.40039 23.0571 1.19093 22.7252 1.08525 22.3554C0.979591 21.9856 0.982107 21.5932 1.09249 21.2248C1.09246 21.2249 1.09252 21.2248 1.09249 21.2248L5.32839 7.08019C5.41291 6.78789 5.56426 6.51921 5.77051 6.29541C5.97457 6.07398 6.22679 5.90254 6.5076 5.79426C7.75546 5.28312 9.04577 4.88246 10.3637 4.5969C10.8461 4.49181 11.3504 4.56772 11.7805 4.81024C12.2113 5.05312 12.5375 5.4461 12.697 5.9142L12.7 5.92287L13.6874 8.91038C13.8608 9.43476 13.5762 10.0004 13.0518 10.1737C12.5274 10.347 11.9618 10.0624 11.7885 9.53807L10.8036 6.55839C10.8025 6.55586 10.8006 6.55375 10.7982 6.5524Z" fill="#858584"/>
<path fill-rule="evenodd" clip-rule="evenodd" d="M55.5281 11.1183C55.8533 10.9443 56.2478 10.9634 56.5547 11.168L62.5547 15.168C62.8329 15.3534 63 15.6656 63 16C63 16.3344 62.8329 16.6466 62.5547 16.8321L56.5547 20.8321C56.2478 21.0366 55.8533 21.0557 55.5281 20.8817C55.203 20.7077 55 20.3688 55 20V12C55 11.6312 55.203 11.2923 55.5281 11.1183ZM57 13.8685V18.1315L60.1972 16L57 13.8685Z" fill="#858584"/>
<path fill-rule="evenodd" clip-rule="evenodd" d="M57.9985 5.05082L57.9816 5.05078L57.9188 5.05081C57.8643 5.05093 57.785 5.05133 57.6831 5.05241C57.4794 5.05457 57.1856 5.05947 56.8206 5.07043C56.0912 5.09232 55.0746 5.13847 53.9237 5.23563C51.6473 5.42782 48.7493 5.82669 46.5181 6.6792L46.5034 6.68495C46.0651 6.86039 45.6742 7.13637 45.3622 7.49064C45.0502 7.84491 44.8258 8.26755 44.7071 8.72447L44.7061 8.72824C44.3947 9.9468 44 12.2065 44 16.0008C44 19.7952 44.3947 22.0549 44.7061 23.2734L44.7071 23.2772C44.8258 23.7341 45.0502 24.1568 45.3622 24.511C45.6742 24.8653 46.0651 25.1413 46.5034 25.3167L46.5181 25.3225C48.7493 26.175 51.6473 26.5739 53.9237 26.766C55.0746 26.8632 56.0912 26.9094 56.8206 26.9312C57.1856 26.9422 57.4794 26.9471 57.6831 26.9493C57.785 26.9504 57.8643 26.9507 57.9188 26.9509L57.9816 26.9509L57.9985 26.9509H58.0015L58.0184 26.9509L58.0812 26.9509C58.1357 26.9507 58.215 26.9504 58.3169 26.9493C58.5206 26.9471 58.8144 26.9422 59.1794 26.9312C59.9088 26.9094 60.9254 26.8632 62.0763 26.766C64.3527 26.5739 67.2507 26.175 69.4819 25.3225L69.4966 25.3167C69.9349 25.1413 70.3258 24.8653 70.6378 24.511C70.9498 24.1568 71.1742 23.7341 71.2929 23.2772L71.2939 23.2734C71.6053 22.0549 72 19.7952 72 16.0008C72 12.2065 71.6053 9.9468 71.2939 8.72824L71.2929 8.72447C71.1742 8.26755 70.9498 7.84491 70.6378 7.49064C70.3258 7.13637 69.9349 6.86039 69.4966 6.68495L69.4819 6.6792C67.2507 5.82669 64.3527 5.42782 62.0763 5.23563C60.9254 5.13847 59.9088 5.09232 59.1794 5.07043C58.8144 5.05947 58.5206 5.05457 58.3169 5.05241C58.215 5.05133 58.1357 5.05093 58.0812 5.05081L58.0184 5.05078L58.0015 5.05082H57.9985ZM57.9947 24.9509L58.0054 24.9508L58.0086 24.9509L58.0217 24.9509L58.0767 24.9509C58.1259 24.9508 58.1996 24.9504 58.2957 24.9494C58.4877 24.9473 58.7686 24.9427 59.1194 24.9321C59.8216 24.9111 60.8011 24.8666 61.9081 24.7731C64.1441 24.5843 66.8041 24.2028 68.7596 23.4574C68.9044 23.3984 69.0336 23.3066 69.1369 23.1892C69.2414 23.0705 69.3167 22.929 69.3567 22.7761C69.6203 21.7438 70 19.6539 70 16.0008C70 12.3478 69.6203 10.2578 69.3567 9.22562C69.3167 9.07265 69.2414 8.93117 69.1369 8.81251C69.0336 8.69512 68.9044 8.60331 68.7596 8.54424C66.8041 7.79889 64.1441 7.41733 61.9081 7.22854C60.8011 7.13509 59.8216 7.09061 59.1194 7.06953C58.7686 7.059 58.4877 7.05433 58.2957 7.0523C58.1996 7.05128 58.1259 7.05092 58.0767 7.05081L58.0217 7.05078L58.0086 7.05081L58.0058 7.05082L57.9946 7.05088L57.9914 7.05081L57.9783 7.05078L57.9233 7.05081C57.8741 7.05092 57.8004 7.05128 57.7043 7.0523C57.5123 7.05433 57.2314 7.059 56.8806 7.06953C56.1784 7.09061 55.1989 7.13509 54.0919 7.22854C51.8559 7.41733 49.1959 7.79889 47.2404 8.54424C47.0956 8.60331 46.9664 8.69513 46.8631 8.81251C46.7586 8.93117 46.6833 9.07265 46.6433 9.22562C46.3797 10.2578 46 12.3478 46 16.0008C46 19.6539 46.3797 21.7438 46.6433 22.7761C46.6833 22.929 46.7586 23.0705 46.8631 23.1892C46.9664 23.3066 47.0956 23.3984 47.2404 23.4574C49.1959 24.2028 51.8559 24.5843 54.0919 24.7731C55.1989 24.8666 56.1784 24.9111 56.8806 24.9321C57.2314 24.9427 57.5123 24.9473 57.7043 24.9494C57.8004 24.9504 57.8741 24.9508 57.9233 24.9509L57.9783 24.9509L57.9914 24.9509L57.9947 24.9509Z" fill="#858584"/>
<path d="M100.001 11.0005C100.001 8.25045 102.313 5.96295 105.063 6.00045C106.026 6.01157 106.966 6.3006 107.768 6.8328C108.571 7.365 109.203 8.11771 109.588 9.00045H114.001L109.963 13.038C109.703 17.0937 107.907 20.8979 104.942 23.6773C101.977 26.4566 98.0648 28.0025 94.0007 28.0005C90.0007 28.0005 89.0007 26.5005 89.0007 26.5005C89.0007 26.5005 93.0007 25.0005 95.0007 22.0005C95.0007 22.0005 87.0007 18.0005 89.0007 7.00045C89.0007 7.00045 94.0007 12.0005 100.001 13.0005V11.0005Z" stroke="#858584" stroke-width="2" stroke-linecap="round" stroke-linejoin="round"/>
<path fill-rule="evenodd" clip-rule="evenodd" d="M142 12C139.791 12 138 13.7909 138 16C138 18.2091 139.791 20 142 20C144.209 20 146 18.2091 146 16C146 13.7909 144.209 12 142 12ZM136 16C136 12.6863 138.686 10 142 10C145.314 10 148 12.6863 148 16C148 19.3137 145.314 22 142 22C138.686 22 136 19.3137 136 16Z" fill="#858584"/>
<path fill-rule="evenodd" clip-rule="evenodd" d="M136.5 5.5C133.739 5.5 131.5 7.73858 131.5 10.5V21.5C131.5 24.2614 133.739 26.5 136.5 26.5H147.5C150.261 26.5 152.5 24.2614 152.5 21.5V10.5C152.5 7.73858 150.261 5.5 147.5 5.5H136.5ZM129.5 10.5C129.5 6.63401 132.634 3.5 136.5 3.5H147.5C151.366 3.5 154.5 6.63401 154.5 10.5V21.5C154.5 25.366 151.366 28.5 147.5 28.5H136.5C132.634 28.5 129.5 25.366 129.5 21.5V10.5Z" fill="#858584"/>
<path d="M148.5 11C149.328 11 150 10.3284 150 9.5C150 8.67157 149.328 8 148.5 8C147.672 8 147 8.67157 147 9.5C147 10.3284 147.672 11 148.5 11Z" fill="#858584"/>
</svg>
